<svg width="96" height="96" viewBox="0 0 96 96" fill="none" xmlns="http://www.w3.org/2000/svg">
<circle cx="48" cy="48" r="48" fill="#F44437"/>
<path fill-rule="evenodd" clip-rule="evenodd" d="M70.822 59.5901C72.3837 61.1521 72.3837 63.6844 70.822 65.2464L65.2399 70.8297C63.6777 72.3922 61.1446 72.3922 59.5824 70.8297L50.8254 62.0708C49.2632 60.5084 46.7301 60.5084 45.168 62.0708L36.4109 70.8297C34.8487 72.3922 32.3156 72.3922 30.7535 70.8297L25.1713 65.2464C23.6096 63.6844 23.6096 61.1521 25.1713 59.5901L33.9307 50.8289C35.4924 49.2669 35.4924 46.7347 33.9307 45.1727L25.1713 36.4114C23.6096 34.8494 23.6096 32.3172 25.1713 30.7552L30.7534 25.1719C32.3156 23.6094 34.8487 23.6094 36.4109 25.1719L45.168 33.9307C46.7301 35.4932 49.2632 35.4932 50.8254 33.9308L59.5825 25.1719C61.1446 23.6094 63.6777 23.6094 65.2399 25.1719L70.8221 30.7552C72.3838 32.3172 72.3838 34.8494 70.8221 36.4114L62.0627 45.1727C60.5009 46.7347 60.5009 49.2669 62.0627 50.8289L70.822 59.5901Z" fill="#F5F5F5"/>
</svg>
